<mxfile host="app.diagrams.net" modified="2022-04-02T06:23:29.285Z" agent="5.0 (Windows NT 10.0; WOW64) AppleWebKit/537.36 (KHTML, like Gecko) Chrome/80.0.3987.87 Safari/537.36 SE 2.X MetaSr 1.0" etag="O88c2_9fvULdz_yneTak" version="17.3.0" type="github">
  <diagram id="D6BylBkNNL8FtkSG672A" name="Page-1">
    <mxGraphModel dx="5447" dy="1192" grid="0" gridSize="10" guides="1" tooltips="1" connect="0" arrows="0" fold="1" page="1" pageScale="1" pageWidth="3300" pageHeight="4681" math="0" shadow="0">
      <root>
        <mxCell id="0" />
        <mxCell id="1" parent="0" />
        <mxCell id="hw_Zu4aNKHXRsitxXcyl-217" value="" style="rounded=0;whiteSpace=wrap;html=1;fontSize=15;fontColor=#000000;dashed=1;" vertex="1" parent="1">
          <mxGeometry x="-1133.75" y="693" width="700" height="409" as="geometry" />
        </mxCell>
        <mxCell id="hw_Zu4aNKHXRsitxXcyl-215" value="" style="rounded=0;whiteSpace=wrap;html=1;fontSize=15;fontColor=#000000;dashed=1;" vertex="1" parent="1">
          <mxGeometry x="-1910" y="693" width="650" height="409" as="geometry" />
        </mxCell>
        <mxCell id="hw_Zu4aNKHXRsitxXcyl-213" value="" style="rounded=0;whiteSpace=wrap;html=1;fontSize=15;fontColor=#000000;dashed=1;" vertex="1" parent="1">
          <mxGeometry x="-1079" y="203" width="260" height="250" as="geometry" />
        </mxCell>
        <mxCell id="hw_Zu4aNKHXRsitxXcyl-211" value="" style="rounded=0;whiteSpace=wrap;html=1;fontSize=15;fontColor=#000000;dashed=1;" vertex="1" parent="1">
          <mxGeometry x="-1589" y="204.5" width="400" height="247" as="geometry" />
        </mxCell>
        <mxCell id="hw_Zu4aNKHXRsitxXcyl-209" value="" style="rounded=0;whiteSpace=wrap;html=1;fontSize=15;fontColor=#000000;dashed=1;" vertex="1" parent="1">
          <mxGeometry x="-1910" y="204.5" width="230" height="245" as="geometry" />
        </mxCell>
        <mxCell id="hw_Zu4aNKHXRsitxXcyl-207" value="" style="rounded=0;whiteSpace=wrap;html=1;fontSize=15;fontColor=#000000;dashed=1;" vertex="1" parent="1">
          <mxGeometry x="-690.25" y="202" width="605" height="417" as="geometry" />
        </mxCell>
        <mxCell id="P8GiVf-amTZCyg1b9BKk-1" value="" style="rounded=0;html=1;jettySize=auto;orthogonalLoop=1;fontSize=11;endArrow=block;endFill=0;endSize=8;strokeWidth=1;shadow=0;labelBackgroundColor=none;edgeStyle=orthogonalEdgeStyle;entryX=0.5;entryY=0;entryDx=0;entryDy=0;" parent="1" source="P8GiVf-amTZCyg1b9BKk-2" target="P8GiVf-amTZCyg1b9BKk-5" edge="1">
          <mxGeometry relative="1" as="geometry">
            <mxPoint x="560" y="2430" as="targetPoint" />
            <Array as="points">
              <mxPoint x="560" y="2430" />
              <mxPoint x="560" y="2430" />
            </Array>
          </mxGeometry>
        </mxCell>
        <mxCell id="P8GiVf-amTZCyg1b9BKk-2" value="idle" style="rounded=1;whiteSpace=wrap;html=1;fontSize=12;glass=0;strokeWidth=1;shadow=0;" parent="1" vertex="1">
          <mxGeometry x="500" y="2360" width="120" height="40" as="geometry" />
        </mxCell>
        <mxCell id="P8GiVf-amTZCyg1b9BKk-4" style="edgeStyle=orthogonalEdgeStyle;curved=1;rounded=0;orthogonalLoop=1;jettySize=auto;html=1;exitX=0.25;exitY=1;exitDx=0;exitDy=0;entryX=0.25;entryY=0;entryDx=0;entryDy=0;" parent="1" source="P8GiVf-amTZCyg1b9BKk-5" target="P8GiVf-amTZCyg1b9BKk-9" edge="1">
          <mxGeometry relative="1" as="geometry" />
        </mxCell>
        <mxCell id="hw_Zu4aNKHXRsitxXcyl-90" style="edgeStyle=orthogonalEdgeStyle;rounded=0;orthogonalLoop=1;jettySize=auto;html=1;exitX=0.75;exitY=0;exitDx=0;exitDy=0;entryX=0.75;entryY=1;entryDx=0;entryDy=0;" edge="1" parent="1" source="P8GiVf-amTZCyg1b9BKk-5" target="P8GiVf-amTZCyg1b9BKk-2">
          <mxGeometry relative="1" as="geometry" />
        </mxCell>
        <mxCell id="P8GiVf-amTZCyg1b9BKk-5" value="activate" style="rounded=1;whiteSpace=wrap;html=1;fontSize=12;glass=0;strokeWidth=1;shadow=0;" parent="1" vertex="1">
          <mxGeometry x="500" y="2450" width="120" height="40" as="geometry" />
        </mxCell>
        <mxCell id="P8GiVf-amTZCyg1b9BKk-6" style="edgeStyle=none;rounded=0;orthogonalLoop=1;jettySize=auto;html=1;exitX=0.5;exitY=1;exitDx=0;exitDy=0;entryX=0.5;entryY=0;entryDx=0;entryDy=0;" parent="1" source="P8GiVf-amTZCyg1b9BKk-9" target="P8GiVf-amTZCyg1b9BKk-18" edge="1">
          <mxGeometry relative="1" as="geometry" />
        </mxCell>
        <mxCell id="P8GiVf-amTZCyg1b9BKk-7" style="edgeStyle=orthogonalEdgeStyle;rounded=0;orthogonalLoop=1;jettySize=auto;html=1;exitX=1;exitY=0.5;exitDx=0;exitDy=0;entryX=0;entryY=0.5;entryDx=0;entryDy=0;" parent="1" source="P8GiVf-amTZCyg1b9BKk-9" target="P8GiVf-amTZCyg1b9BKk-21" edge="1">
          <mxGeometry relative="1" as="geometry">
            <Array as="points">
              <mxPoint x="620" y="2600" />
              <mxPoint x="675" y="2600" />
              <mxPoint x="675" y="2680" />
            </Array>
          </mxGeometry>
        </mxCell>
        <mxCell id="P8GiVf-amTZCyg1b9BKk-8" style="edgeStyle=orthogonalEdgeStyle;curved=1;rounded=0;orthogonalLoop=1;jettySize=auto;html=1;exitX=0.75;exitY=0;exitDx=0;exitDy=0;entryX=0.75;entryY=1;entryDx=0;entryDy=0;" parent="1" source="P8GiVf-amTZCyg1b9BKk-9" target="P8GiVf-amTZCyg1b9BKk-5" edge="1">
          <mxGeometry relative="1" as="geometry" />
        </mxCell>
        <mxCell id="P8GiVf-amTZCyg1b9BKk-9" value="teach_mode" style="rounded=1;whiteSpace=wrap;html=1;fontSize=12;glass=0;strokeWidth=1;shadow=0;" parent="1" vertex="1">
          <mxGeometry x="500" y="2570" width="120" height="40" as="geometry" />
        </mxCell>
        <mxCell id="P8GiVf-amTZCyg1b9BKk-10" value="&lt;span&gt;intent:greet&lt;/span&gt;" style="shape=hexagon;perimeter=hexagonPerimeter2;whiteSpace=wrap;html=1;fixedSize=1;" parent="1" vertex="1">
          <mxGeometry x="430" y="2405" width="120" height="40" as="geometry" />
        </mxCell>
        <mxCell id="P8GiVf-amTZCyg1b9BKk-14" value="&lt;span&gt;intent:start&lt;/span&gt;" style="shape=hexagon;perimeter=hexagonPerimeter2;whiteSpace=wrap;html=1;fixedSize=1;" parent="1" vertex="1">
          <mxGeometry x="425" y="2510" width="90" height="40" as="geometry" />
        </mxCell>
        <mxCell id="P8GiVf-amTZCyg1b9BKk-16" style="edgeStyle=none;rounded=0;orthogonalLoop=1;jettySize=auto;html=1;exitX=1;exitY=0.5;exitDx=0;exitDy=0;" parent="1" source="P8GiVf-amTZCyg1b9BKk-18" edge="1">
          <mxGeometry relative="1" as="geometry">
            <mxPoint x="560" y="2610" as="targetPoint" />
          </mxGeometry>
        </mxCell>
        <mxCell id="P8GiVf-amTZCyg1b9BKk-17" style="edgeStyle=none;rounded=0;orthogonalLoop=1;jettySize=auto;html=1;exitX=0.5;exitY=1;exitDx=0;exitDy=0;entryX=0.5;entryY=0;entryDx=0;entryDy=0;" parent="1" source="P8GiVf-amTZCyg1b9BKk-18" target="P8GiVf-amTZCyg1b9BKk-25" edge="1">
          <mxGeometry relative="1" as="geometry" />
        </mxCell>
        <mxCell id="P8GiVf-amTZCyg1b9BKk-18" value="teaching" style="rounded=1;whiteSpace=wrap;html=1;fontSize=12;glass=0;strokeWidth=1;shadow=0;" parent="1" vertex="1">
          <mxGeometry x="380" y="2660" width="120" height="40" as="geometry" />
        </mxCell>
        <mxCell id="P8GiVf-amTZCyg1b9BKk-19" style="edgeStyle=orthogonalEdgeStyle;rounded=0;orthogonalLoop=1;jettySize=auto;html=1;exitX=0.5;exitY=1;exitDx=0;exitDy=0;entryX=0.5;entryY=0;entryDx=0;entryDy=0;" parent="1" source="P8GiVf-amTZCyg1b9BKk-21" target="P8GiVf-amTZCyg1b9BKk-32" edge="1">
          <mxGeometry relative="1" as="geometry" />
        </mxCell>
        <mxCell id="P8GiVf-amTZCyg1b9BKk-20" style="edgeStyle=orthogonalEdgeStyle;curved=1;rounded=0;orthogonalLoop=1;jettySize=auto;html=1;exitX=1;exitY=0.5;exitDx=0;exitDy=0;entryX=0;entryY=0.5;entryDx=0;entryDy=0;" parent="1" source="P8GiVf-amTZCyg1b9BKk-21" target="P8GiVf-amTZCyg1b9BKk-35" edge="1">
          <mxGeometry relative="1" as="geometry" />
        </mxCell>
        <mxCell id="P8GiVf-amTZCyg1b9BKk-21" value="ask" style="rounded=1;whiteSpace=wrap;html=1;fontSize=12;glass=0;strokeWidth=1;shadow=0;" parent="1" vertex="1">
          <mxGeometry x="730" y="2660" width="120" height="40" as="geometry" />
        </mxCell>
        <mxCell id="P8GiVf-amTZCyg1b9BKk-22" value="&lt;span&gt;intent:teach_is&lt;/span&gt;" style="shape=hexagon;perimeter=hexagonPerimeter2;whiteSpace=wrap;html=1;fixedSize=1;" parent="1" vertex="1">
          <mxGeometry x="370" y="2600" width="120" height="40" as="geometry" />
        </mxCell>
        <mxCell id="P8GiVf-amTZCyg1b9BKk-23" style="edgeStyle=orthogonalEdgeStyle;rounded=0;orthogonalLoop=1;jettySize=auto;html=1;exitX=0;exitY=0.5;exitDx=0;exitDy=0;entryX=0;entryY=0.5;entryDx=0;entryDy=0;" parent="1" source="P8GiVf-amTZCyg1b9BKk-25" target="P8GiVf-amTZCyg1b9BKk-9" edge="1">
          <mxGeometry relative="1" as="geometry">
            <Array as="points">
              <mxPoint x="270" y="2800" />
              <mxPoint x="270" y="2590" />
            </Array>
          </mxGeometry>
        </mxCell>
        <mxCell id="P8GiVf-amTZCyg1b9BKk-24" style="edgeStyle=orthogonalEdgeStyle;rounded=0;orthogonalLoop=1;jettySize=auto;html=1;exitX=0.5;exitY=1;exitDx=0;exitDy=0;curved=1;" parent="1" source="P8GiVf-amTZCyg1b9BKk-25" target="P8GiVf-amTZCyg1b9BKk-25" edge="1">
          <mxGeometry relative="1" as="geometry">
            <mxPoint x="410" y="2830" as="targetPoint" />
            <Array as="points">
              <mxPoint x="440" y="2870" />
              <mxPoint x="390" y="2870" />
            </Array>
          </mxGeometry>
        </mxCell>
        <mxCell id="P8GiVf-amTZCyg1b9BKk-25" value="ask_teaching_point" style="rounded=1;whiteSpace=wrap;html=1;fontSize=12;glass=0;strokeWidth=1;shadow=0;" parent="1" vertex="1">
          <mxGeometry x="365" y="2780" width="150" height="40" as="geometry" />
        </mxCell>
        <mxCell id="P8GiVf-amTZCyg1b9BKk-26" value="&lt;span&gt;候选obj确定&lt;br&gt;action:affirm&lt;br&gt;更新认知信息&lt;br&gt;&lt;/span&gt;" style="shape=hexagon;perimeter=hexagonPerimeter2;whiteSpace=wrap;html=1;fixedSize=1;" parent="1" vertex="1">
          <mxGeometry x="540" y="2640" width="120" height="40" as="geometry" />
        </mxCell>
        <mxCell id="P8GiVf-amTZCyg1b9BKk-27" value="&lt;span&gt;候选obj大于1&lt;br&gt;action:&lt;/span&gt;ask&lt;span&gt;&lt;br&gt;&lt;/span&gt;" style="shape=hexagon;perimeter=hexagonPerimeter2;whiteSpace=wrap;html=1;fixedSize=1;" parent="1" vertex="1">
          <mxGeometry x="320" y="2718" width="120" height="42" as="geometry" />
        </mxCell>
        <mxCell id="P8GiVf-amTZCyg1b9BKk-28" value="&lt;span&gt;intent:confirm&lt;br&gt;action:ask&lt;br&gt;&lt;/span&gt;" style="shape=hexagon;perimeter=hexagonPerimeter2;whiteSpace=wrap;html=1;fixedSize=1;" parent="1" vertex="1">
          <mxGeometry x="150" y="2680" width="120" height="40" as="geometry" />
        </mxCell>
        <mxCell id="P8GiVf-amTZCyg1b9BKk-29" value="&lt;span&gt;intent:deny&lt;br&gt;action:ask&lt;br&gt;&lt;/span&gt;" style="shape=hexagon;perimeter=hexagonPerimeter2;whiteSpace=wrap;html=1;fixedSize=1;" parent="1" vertex="1">
          <mxGeometry x="360" y="2880" width="120" height="40" as="geometry" />
        </mxCell>
        <mxCell id="P8GiVf-amTZCyg1b9BKk-30" value="&lt;span&gt;intent:ask&lt;br&gt;&lt;/span&gt;" style="shape=hexagon;perimeter=hexagonPerimeter2;whiteSpace=wrap;html=1;fixedSize=1;" parent="1" vertex="1">
          <mxGeometry x="680" y="2610" width="120" height="40" as="geometry" />
        </mxCell>
        <mxCell id="P8GiVf-amTZCyg1b9BKk-31" style="edgeStyle=orthogonalEdgeStyle;rounded=0;orthogonalLoop=1;jettySize=auto;html=1;exitX=1;exitY=0.5;exitDx=0;exitDy=0;entryX=1;entryY=0.5;entryDx=0;entryDy=0;" parent="1" source="P8GiVf-amTZCyg1b9BKk-32" target="P8GiVf-amTZCyg1b9BKk-9" edge="1">
          <mxGeometry relative="1" as="geometry" />
        </mxCell>
        <mxCell id="P8GiVf-amTZCyg1b9BKk-32" value="ask_asking_point" style="rounded=1;whiteSpace=wrap;html=1;fontSize=12;glass=0;strokeWidth=1;shadow=0;" parent="1" vertex="1">
          <mxGeometry x="725" y="2780" width="130" height="40" as="geometry" />
        </mxCell>
        <mxCell id="P8GiVf-amTZCyg1b9BKk-33" value="&lt;span&gt;候选obj大于1&lt;br&gt;action:ask&lt;br&gt;&lt;/span&gt;" style="shape=hexagon;perimeter=hexagonPerimeter2;whiteSpace=wrap;html=1;fixedSize=1;" parent="1" vertex="1">
          <mxGeometry x="660" y="2718" width="120" height="40" as="geometry" />
        </mxCell>
        <mxCell id="P8GiVf-amTZCyg1b9BKk-34" style="edgeStyle=orthogonalEdgeStyle;rounded=0;orthogonalLoop=1;jettySize=auto;html=1;exitX=0.5;exitY=0;exitDx=0;exitDy=0;entryX=1;entryY=0.25;entryDx=0;entryDy=0;" parent="1" source="P8GiVf-amTZCyg1b9BKk-35" target="P8GiVf-amTZCyg1b9BKk-9" edge="1">
          <mxGeometry relative="1" as="geometry">
            <Array as="points">
              <mxPoint x="1000" y="2580" />
            </Array>
          </mxGeometry>
        </mxCell>
        <mxCell id="P8GiVf-amTZCyg1b9BKk-35" value="deny" style="rounded=1;whiteSpace=wrap;html=1;fontSize=12;glass=0;strokeWidth=1;shadow=0;" parent="1" vertex="1">
          <mxGeometry x="940" y="2660" width="120" height="40" as="geometry" />
        </mxCell>
        <mxCell id="P8GiVf-amTZCyg1b9BKk-36" style="edgeStyle=orthogonalEdgeStyle;curved=1;rounded=0;orthogonalLoop=1;jettySize=auto;html=1;exitX=0.5;exitY=1;exitDx=0;exitDy=0;entryX=0.177;entryY=1.05;entryDx=0;entryDy=0;entryPerimeter=0;" parent="1" source="P8GiVf-amTZCyg1b9BKk-32" target="P8GiVf-amTZCyg1b9BKk-32" edge="1">
          <mxGeometry relative="1" as="geometry">
            <Array as="points">
              <mxPoint x="790" y="2870" />
              <mxPoint x="748" y="2870" />
            </Array>
          </mxGeometry>
        </mxCell>
        <mxCell id="P8GiVf-amTZCyg1b9BKk-37" value="&lt;span&gt;intent:deny&lt;br&gt;action:ask&lt;br&gt;&lt;/span&gt;" style="shape=hexagon;perimeter=hexagonPerimeter2;whiteSpace=wrap;html=1;fixedSize=1;" parent="1" vertex="1">
          <mxGeometry x="710" y="2880" width="120" height="40" as="geometry" />
        </mxCell>
        <mxCell id="P8GiVf-amTZCyg1b9BKk-38" value="&lt;span&gt;intent:praise&lt;/span&gt;" style="shape=hexagon;perimeter=hexagonPerimeter2;whiteSpace=wrap;html=1;fixedSize=1;" parent="1" vertex="1">
          <mxGeometry x="550" y="2510" width="90" height="40" as="geometry" />
        </mxCell>
        <mxCell id="P8GiVf-amTZCyg1b9BKk-39" value="&lt;span&gt;intent:deny&lt;br&gt;action:affirm&lt;br&gt;更新认知信息&lt;br&gt;&lt;/span&gt;" style="shape=hexagon;perimeter=hexagonPerimeter2;whiteSpace=wrap;html=1;fixedSize=1;" parent="1" vertex="1">
          <mxGeometry x="1010" y="2590" width="120" height="40" as="geometry" />
        </mxCell>
        <mxCell id="P8GiVf-amTZCyg1b9BKk-40" value="&lt;font style=&quot;font-size: 14px&quot;&gt;feedback&lt;/font&gt;" style="triangle;whiteSpace=wrap;html=1;direction=north;" parent="1" vertex="1">
          <mxGeometry x="255" y="1925" width="140" height="70" as="geometry" />
        </mxCell>
        <mxCell id="P8GiVf-amTZCyg1b9BKk-41" value="" style="endArrow=classic;html=1;rounded=0;fontSize=14;exitX=0;exitY=0.5;exitDx=0;exitDy=0;entryX=0.5;entryY=0;entryDx=0;entryDy=0;" parent="1" source="P8GiVf-amTZCyg1b9BKk-40" target="P8GiVf-amTZCyg1b9BKk-43" edge="1">
          <mxGeometry width="50" height="50" relative="1" as="geometry">
            <mxPoint x="745" y="2085" as="sourcePoint" />
            <mxPoint x="265" y="2055" as="targetPoint" />
          </mxGeometry>
        </mxCell>
        <mxCell id="P8GiVf-amTZCyg1b9BKk-42" value="" style="endArrow=classic;html=1;rounded=0;fontSize=14;exitX=0;exitY=0.5;exitDx=0;exitDy=0;entryX=0.5;entryY=0;entryDx=0;entryDy=0;" parent="1" source="P8GiVf-amTZCyg1b9BKk-40" target="P8GiVf-amTZCyg1b9BKk-44" edge="1">
          <mxGeometry width="50" height="50" relative="1" as="geometry">
            <mxPoint x="335" y="2005" as="sourcePoint" />
            <mxPoint x="375" y="2055" as="targetPoint" />
          </mxGeometry>
        </mxCell>
        <mxCell id="P8GiVf-amTZCyg1b9BKk-43" value="deny" style="rounded=0;whiteSpace=wrap;html=1;fontSize=14;" parent="1" vertex="1">
          <mxGeometry x="135" y="2085" width="100" height="50" as="geometry" />
        </mxCell>
        <mxCell id="P8GiVf-amTZCyg1b9BKk-44" value="teach_is" style="rounded=0;whiteSpace=wrap;html=1;fontSize=14;" parent="1" vertex="1">
          <mxGeometry x="415" y="2085" width="100" height="50" as="geometry" />
        </mxCell>
        <mxCell id="P8GiVf-amTZCyg1b9BKk-45" value="&lt;div style=&quot;color: rgb(212 , 212 , 212) ; background-color: rgb(30 , 30 , 30) ; font-family: &amp;#34;consolas&amp;#34; , &amp;#34;courier new&amp;#34; , monospace ; line-height: 19px&quot;&gt;&lt;span style=&quot;color: #ce9178&quot;&gt;confirm_asking_pointing&lt;/span&gt;&lt;/div&gt;&lt;div style=&quot;color: rgb(212 , 212 , 212) ; background-color: rgb(30 , 30 , 30) ; font-family: &amp;#34;consolas&amp;#34; , &amp;#34;courier new&amp;#34; , monospace ; line-height: 19px&quot;&gt;&lt;span style=&quot;color: #ce9178&quot;&gt;deny&lt;/span&gt;&lt;/div&gt;" style="text;html=1;align=center;verticalAlign=middle;resizable=0;points=[];autosize=1;strokeColor=none;fillColor=none;fontSize=14;" parent="1" vertex="1">
          <mxGeometry x="230" y="1950" width="190" height="40" as="geometry" />
        </mxCell>
        <mxCell id="P8GiVf-amTZCyg1b9BKk-46" value="&lt;div style=&quot;color: rgb(212 , 212 , 212) ; background-color: rgb(30 , 30 , 30) ; font-family: &amp;#34;consolas&amp;#34; , &amp;#34;courier new&amp;#34; , monospace ; line-height: 19px&quot;&gt;&lt;span style=&quot;color: #ce9178&quot;&gt;teach_mode&lt;/span&gt;&lt;/div&gt;&lt;div style=&quot;color: rgb(212 , 212 , 212) ; background-color: rgb(30 , 30 , 30) ; font-family: &amp;#34;consolas&amp;#34; , &amp;#34;courier new&amp;#34; , monospace ; line-height: 19px&quot;&gt;&lt;span style=&quot;color: #ce9178&quot;&gt;teach_is&lt;/span&gt;&lt;/div&gt;" style="text;html=1;align=center;verticalAlign=middle;resizable=0;points=[];autosize=1;strokeColor=none;fillColor=none;fontSize=14;" parent="1" vertex="1">
          <mxGeometry x="415" y="1995" width="90" height="40" as="geometry" />
        </mxCell>
        <mxCell id="P8GiVf-amTZCyg1b9BKk-47" value="&lt;div style=&quot;color: rgb(212 , 212 , 212) ; background-color: rgb(30 , 30 , 30) ; font-family: &amp;#34;consolas&amp;#34; , &amp;#34;courier new&amp;#34; , monospace ; font-size: 14px ; line-height: 19px&quot;&gt;&lt;span style=&quot;color: #ce9178&quot;&gt;confirm_asking_pointing&lt;/span&gt;&lt;/div&gt;" style="triangle;whiteSpace=wrap;html=1;direction=north;" parent="1" vertex="1">
          <mxGeometry x="760" y="1920" width="140" height="70" as="geometry" />
        </mxCell>
        <mxCell id="P8GiVf-amTZCyg1b9BKk-48" value="" style="endArrow=classic;html=1;rounded=0;fontSize=14;exitX=0;exitY=0.5;exitDx=0;exitDy=0;entryX=0.5;entryY=0;entryDx=0;entryDy=0;" parent="1" source="P8GiVf-amTZCyg1b9BKk-47" target="P8GiVf-amTZCyg1b9BKk-50" edge="1">
          <mxGeometry width="50" height="50" relative="1" as="geometry">
            <mxPoint x="1250" y="2080" as="sourcePoint" />
            <mxPoint x="770" y="2050" as="targetPoint" />
          </mxGeometry>
        </mxCell>
        <mxCell id="P8GiVf-amTZCyg1b9BKk-49" value="" style="endArrow=classic;html=1;rounded=0;fontSize=14;exitX=0;exitY=0.5;exitDx=0;exitDy=0;entryX=0.5;entryY=0;entryDx=0;entryDy=0;" parent="1" source="P8GiVf-amTZCyg1b9BKk-47" target="P8GiVf-amTZCyg1b9BKk-51" edge="1">
          <mxGeometry width="50" height="50" relative="1" as="geometry">
            <mxPoint x="840" y="2000" as="sourcePoint" />
            <mxPoint x="880" y="2050" as="targetPoint" />
          </mxGeometry>
        </mxCell>
        <mxCell id="P8GiVf-amTZCyg1b9BKk-50" value="deny" style="rounded=0;whiteSpace=wrap;html=1;fontSize=14;" parent="1" vertex="1">
          <mxGeometry x="640" y="2080" width="100" height="50" as="geometry" />
        </mxCell>
        <mxCell id="P8GiVf-amTZCyg1b9BKk-51" value="teach_is" style="rounded=0;whiteSpace=wrap;html=1;fontSize=14;" parent="1" vertex="1">
          <mxGeometry x="920" y="2080" width="100" height="50" as="geometry" />
        </mxCell>
        <mxCell id="P8GiVf-amTZCyg1b9BKk-52" value="&lt;div style=&quot;color: rgb(212 , 212 , 212) ; background-color: rgb(30 , 30 , 30) ; font-family: &amp;#34;consolas&amp;#34; , &amp;#34;courier new&amp;#34; , monospace ; line-height: 19px&quot;&gt;&lt;span style=&quot;color: #ce9178&quot;&gt;teach_mode&lt;/span&gt;&lt;/div&gt;&lt;div style=&quot;color: rgb(212 , 212 , 212) ; background-color: rgb(30 , 30 , 30) ; font-family: &amp;#34;consolas&amp;#34; , &amp;#34;courier new&amp;#34; , monospace ; line-height: 19px&quot;&gt;&lt;span style=&quot;color: #ce9178&quot;&gt;teach_is&lt;/span&gt;&lt;/div&gt;" style="text;html=1;align=center;verticalAlign=middle;resizable=0;points=[];autosize=1;strokeColor=none;fillColor=none;fontSize=14;" parent="1" vertex="1">
          <mxGeometry x="920" y="1990" width="90" height="40" as="geometry" />
        </mxCell>
        <mxCell id="P8GiVf-amTZCyg1b9BKk-53" value="&lt;div style=&quot;color: rgb(212 , 212 , 212) ; background-color: rgb(30 , 30 , 30) ; font-family: &amp;#34;consolas&amp;#34; , &amp;#34;courier new&amp;#34; , monospace ; line-height: 19px&quot;&gt;&lt;span style=&quot;color: #ce9178&quot;&gt;confirm_asking_pointing&lt;/span&gt;&lt;/div&gt;&lt;div style=&quot;color: rgb(212 , 212 , 212) ; background-color: rgb(30 , 30 , 30) ; font-family: &amp;#34;consolas&amp;#34; , &amp;#34;courier new&amp;#34; , monospace ; line-height: 19px&quot;&gt;&lt;span style=&quot;color: #ce9178&quot;&gt;deny || confirm&lt;br&gt;&lt;/span&gt;&lt;/div&gt;" style="text;html=1;align=center;verticalAlign=middle;resizable=0;points=[];autosize=1;strokeColor=none;fillColor=none;fontSize=14;" parent="1" vertex="1">
          <mxGeometry x="575" y="2005" width="190" height="40" as="geometry" />
        </mxCell>
        <mxCell id="P8GiVf-amTZCyg1b9BKk-54" value="&lt;div style=&quot;color: rgb(212 , 212 , 212) ; background-color: rgb(30 , 30 , 30) ; font-family: &amp;#34;consolas&amp;#34; , &amp;#34;courier new&amp;#34; , monospace ; font-size: 14px ; line-height: 19px&quot;&gt;&lt;div style=&quot;font-family: &amp;#34;consolas&amp;#34; , &amp;#34;courier new&amp;#34; , monospace ; line-height: 19px&quot;&gt;&lt;span style=&quot;color: #ce9178&quot;&gt;confirm_teaching_pointing&lt;/span&gt;&lt;/div&gt;&lt;/div&gt;" style="triangle;whiteSpace=wrap;html=1;direction=north;" parent="1" vertex="1">
          <mxGeometry x="270" y="2195" width="140" height="70" as="geometry" />
        </mxCell>
        <mxCell id="P8GiVf-amTZCyg1b9BKk-55" value="" style="endArrow=classic;html=1;rounded=0;fontSize=14;exitX=0;exitY=0.5;exitDx=0;exitDy=0;entryX=0.5;entryY=0;entryDx=0;entryDy=0;" parent="1" source="P8GiVf-amTZCyg1b9BKk-54" target="P8GiVf-amTZCyg1b9BKk-57" edge="1">
          <mxGeometry width="50" height="50" relative="1" as="geometry">
            <mxPoint x="760" y="2355" as="sourcePoint" />
            <mxPoint x="280" y="2325" as="targetPoint" />
          </mxGeometry>
        </mxCell>
        <mxCell id="P8GiVf-amTZCyg1b9BKk-56" value="" style="endArrow=classic;html=1;rounded=0;fontSize=14;exitX=0;exitY=0.5;exitDx=0;exitDy=0;entryX=0.5;entryY=0;entryDx=0;entryDy=0;" parent="1" source="P8GiVf-amTZCyg1b9BKk-54" target="P8GiVf-amTZCyg1b9BKk-58" edge="1">
          <mxGeometry width="50" height="50" relative="1" as="geometry">
            <mxPoint x="350" y="2275" as="sourcePoint" />
            <mxPoint x="390" y="2325" as="targetPoint" />
          </mxGeometry>
        </mxCell>
        <mxCell id="P8GiVf-amTZCyg1b9BKk-57" value="初始化confirm_teach" style="rounded=0;whiteSpace=wrap;html=1;fontSize=14;" parent="1" vertex="1">
          <mxGeometry x="150" y="2355" width="100" height="50" as="geometry" />
        </mxCell>
        <mxCell id="P8GiVf-amTZCyg1b9BKk-58" value="确认物品||不确定性物品" style="rounded=0;whiteSpace=wrap;html=1;fontSize=14;" parent="1" vertex="1">
          <mxGeometry x="430" y="2355" width="100" height="50" as="geometry" />
        </mxCell>
        <mxCell id="P8GiVf-amTZCyg1b9BKk-59" value="&lt;div style=&quot;color: rgb(212 , 212 , 212) ; background-color: rgb(30 , 30 , 30) ; font-family: &amp;#34;consolas&amp;#34; , &amp;#34;courier new&amp;#34; , monospace ; line-height: 19px&quot;&gt;&lt;span style=&quot;color: rgb(206 , 145 , 120)&quot;&gt;confirm_teaching_pointing&lt;/span&gt;&lt;br&gt;&lt;/div&gt;&lt;div style=&quot;color: rgb(212 , 212 , 212) ; background-color: rgb(30 , 30 , 30) ; font-family: &amp;#34;consolas&amp;#34; , &amp;#34;courier new&amp;#34; , monospace ; line-height: 19px&quot;&gt;&lt;span style=&quot;color: #ce9178&quot;&gt;teach_is&lt;/span&gt;&lt;/div&gt;" style="text;html=1;align=center;verticalAlign=middle;resizable=0;points=[];autosize=1;strokeColor=none;fillColor=none;fontSize=14;" parent="1" vertex="1">
          <mxGeometry x="370" y="2265" width="210" height="40" as="geometry" />
        </mxCell>
        <mxCell id="P8GiVf-amTZCyg1b9BKk-60" value="&lt;div style=&quot;color: rgb(212 , 212 , 212) ; background-color: rgb(30 , 30 , 30) ; font-family: &amp;#34;consolas&amp;#34; , &amp;#34;courier new&amp;#34; , monospace ; line-height: 19px&quot;&gt;&lt;div style=&quot;font-family: &amp;#34;consolas&amp;#34; , &amp;#34;courier new&amp;#34; , monospace ; line-height: 19px&quot;&gt;&lt;span style=&quot;color: #ce9178&quot;&gt;teach_mode&lt;/span&gt;&lt;/div&gt;&lt;/div&gt;&lt;div style=&quot;color: rgb(212 , 212 , 212) ; background-color: rgb(30 , 30 , 30) ; font-family: &amp;#34;consolas&amp;#34; , &amp;#34;courier new&amp;#34; , monospace ; line-height: 19px&quot;&gt;&lt;div style=&quot;font-family: &amp;#34;consolas&amp;#34; , &amp;#34;courier new&amp;#34; , monospace ; line-height: 19px&quot;&gt;&lt;span style=&quot;color: #ce9178&quot;&gt;teach_is&lt;/span&gt;&lt;/div&gt;&lt;div style=&quot;font-family: &amp;#34;consolas&amp;#34; , &amp;#34;courier new&amp;#34; , monospace ; line-height: 19px&quot;&gt;&lt;div style=&quot;line-height: 19px&quot;&gt;#&lt;span style=&quot;color: #9cdcfe&quot;&gt;remain_obj_id_point&lt;/span&gt; &amp;gt; &lt;span style=&quot;color: #b5cea8&quot;&gt;1&lt;/span&gt;&lt;/div&gt;&lt;/div&gt;&lt;/div&gt;" style="text;html=1;align=center;verticalAlign=middle;resizable=0;points=[];autosize=1;strokeColor=none;fillColor=none;fontSize=14;" parent="1" vertex="1">
          <mxGeometry x="40" y="1810" width="200" height="60" as="geometry" />
        </mxCell>
        <mxCell id="hw_Zu4aNKHXRsitxXcyl-91" value="&lt;span&gt;intent:goodbye&lt;/span&gt;" style="shape=hexagon;perimeter=hexagonPerimeter2;whiteSpace=wrap;html=1;fixedSize=1;" vertex="1" parent="1">
          <mxGeometry x="600" y="2405" width="120" height="40" as="geometry" />
        </mxCell>
        <mxCell id="hw_Zu4aNKHXRsitxXcyl-95" style="edgeStyle=orthogonalEdgeStyle;rounded=0;orthogonalLoop=1;jettySize=auto;html=1;exitX=0;exitY=0.5;exitDx=0;exitDy=0;entryX=0.5;entryY=0;entryDx=0;entryDy=0;" edge="1" parent="1" source="hw_Zu4aNKHXRsitxXcyl-92" target="hw_Zu4aNKHXRsitxXcyl-94">
          <mxGeometry relative="1" as="geometry" />
        </mxCell>
        <mxCell id="hw_Zu4aNKHXRsitxXcyl-92" value="idle" style="triangle;whiteSpace=wrap;html=1;direction=north;" vertex="1" parent="1">
          <mxGeometry x="-1838" y="302" width="140" height="50" as="geometry" />
        </mxCell>
        <mxCell id="hw_Zu4aNKHXRsitxXcyl-93" value="&lt;font style=&quot;font-size: 15px&quot;&gt;pre_check:&lt;br&gt;intent = start&lt;br&gt;state = activate&lt;/font&gt;" style="text;html=1;align=left;verticalAlign=middle;resizable=0;points=[];autosize=1;strokeColor=none;fillColor=none;" vertex="1" parent="1">
          <mxGeometry x="-969" y="242" width="120" height="50" as="geometry" />
        </mxCell>
        <mxCell id="hw_Zu4aNKHXRsitxXcyl-94" value="utter_goodbye" style="rounded=0;whiteSpace=wrap;html=1;fontSize=14;" vertex="1" parent="1">
          <mxGeometry x="-1818" y="392" width="100" height="50" as="geometry" />
        </mxCell>
        <mxCell id="hw_Zu4aNKHXRsitxXcyl-96" style="edgeStyle=orthogonalEdgeStyle;rounded=0;orthogonalLoop=1;jettySize=auto;html=1;exitX=0;exitY=0.5;exitDx=0;exitDy=0;entryX=0.5;entryY=0;entryDx=0;entryDy=0;" edge="1" parent="1" target="hw_Zu4aNKHXRsitxXcyl-99">
          <mxGeometry relative="1" as="geometry">
            <mxPoint x="-1399" y="352" as="sourcePoint" />
            <Array as="points">
              <mxPoint x="-1399" y="362" />
              <mxPoint x="-1464" y="362" />
            </Array>
          </mxGeometry>
        </mxCell>
        <mxCell id="hw_Zu4aNKHXRsitxXcyl-98" value="&lt;font style=&quot;font-size: 15px&quot;&gt;pre_check:&lt;br&gt;intent = greet &amp;amp; state = idle&amp;nbsp; ||&lt;br&gt;intent = praise &amp;amp; state = teach_mode&lt;br&gt;&lt;/font&gt;" style="text;html=1;align=left;verticalAlign=middle;resizable=0;points=[];autosize=1;strokeColor=none;fillColor=none;" vertex="1" parent="1">
          <mxGeometry x="-1469" y="244" width="259" height="47" as="geometry" />
        </mxCell>
        <mxCell id="hw_Zu4aNKHXRsitxXcyl-99" value="utter_greet" style="rounded=0;whiteSpace=wrap;html=1;fontSize=14;" vertex="1" parent="1">
          <mxGeometry x="-1514" y="392" width="100" height="50" as="geometry" />
        </mxCell>
        <mxCell id="hw_Zu4aNKHXRsitxXcyl-111" style="edgeStyle=orthogonalEdgeStyle;rounded=0;orthogonalLoop=1;jettySize=auto;html=1;exitX=0.5;exitY=1;exitDx=0;exitDy=0;entryX=0.5;entryY=0;entryDx=0;entryDy=0;fontSize=15;" edge="1" parent="1" source="hw_Zu4aNKHXRsitxXcyl-108" target="hw_Zu4aNKHXRsitxXcyl-109">
          <mxGeometry relative="1" as="geometry">
            <Array as="points">
              <mxPoint x="-1399" y="362" />
              <mxPoint x="-1329" y="362" />
            </Array>
          </mxGeometry>
        </mxCell>
        <mxCell id="hw_Zu4aNKHXRsitxXcyl-108" value="&lt;span style=&quot;font-size: 12px&quot;&gt;activate&lt;/span&gt;" style="ellipse;whiteSpace=wrap;html=1;fontSize=15;dashed=1;" vertex="1" parent="1">
          <mxGeometry x="-1459" y="302" width="120" height="50" as="geometry" />
        </mxCell>
        <mxCell id="hw_Zu4aNKHXRsitxXcyl-109" value="utter_goodbye" style="rounded=0;whiteSpace=wrap;html=1;fontSize=14;" vertex="1" parent="1">
          <mxGeometry x="-1379" y="392" width="100" height="50" as="geometry" />
        </mxCell>
        <mxCell id="hw_Zu4aNKHXRsitxXcyl-112" value="&lt;font style=&quot;font-size: 15px&quot;&gt;pre_check:&lt;br&gt;intent = greet&lt;br&gt;&lt;/font&gt;" style="text;html=1;align=left;verticalAlign=middle;resizable=0;points=[];autosize=1;strokeColor=none;fillColor=none;" vertex="1" parent="1">
          <mxGeometry x="-1559" y="352" width="100" height="30" as="geometry" />
        </mxCell>
        <mxCell id="hw_Zu4aNKHXRsitxXcyl-114" value="&lt;font style=&quot;font-size: 15px&quot;&gt;pre_check:&lt;br&gt;intent = goodbye&lt;br&gt;&lt;/font&gt;" style="text;html=1;align=left;verticalAlign=middle;resizable=0;points=[];autosize=1;strokeColor=none;fillColor=none;" vertex="1" parent="1">
          <mxGeometry x="-1319" y="352" width="130" height="30" as="geometry" />
        </mxCell>
        <mxCell id="hw_Zu4aNKHXRsitxXcyl-126" style="edgeStyle=orthogonalEdgeStyle;rounded=0;orthogonalLoop=1;jettySize=auto;html=1;exitX=0;exitY=0.5;exitDx=0;exitDy=0;entryX=0.5;entryY=0;entryDx=0;entryDy=0;" edge="1" parent="1" source="hw_Zu4aNKHXRsitxXcyl-127" target="hw_Zu4aNKHXRsitxXcyl-128">
          <mxGeometry relative="1" as="geometry" />
        </mxCell>
        <mxCell id="hw_Zu4aNKHXRsitxXcyl-127" value="teach_mode" style="triangle;whiteSpace=wrap;html=1;direction=north;" vertex="1" parent="1">
          <mxGeometry x="-969" y="302" width="140" height="50" as="geometry" />
        </mxCell>
        <mxCell id="hw_Zu4aNKHXRsitxXcyl-128" value="utter_start" style="rounded=0;whiteSpace=wrap;html=1;fontSize=14;" vertex="1" parent="1">
          <mxGeometry x="-949" y="392" width="100" height="50" as="geometry" />
        </mxCell>
        <mxCell id="hw_Zu4aNKHXRsitxXcyl-130" value="&lt;font style=&quot;font-size: 15px&quot;&gt;pre_check:&lt;br&gt;intent = teach_is &amp;amp; state = teach_mode&amp;nbsp; &amp;amp; len(remain_obj) &amp;gt; 1 ||&lt;br&gt;(intent = deny || intent = confirm) &amp;amp; state = confirm_teaching_pointing&lt;br&gt;&lt;/font&gt;" style="text;html=1;align=left;verticalAlign=middle;resizable=0;points=[];autosize=1;strokeColor=none;fillColor=none;" vertex="1" parent="1">
          <mxGeometry x="-542.75" y="232" width="480" height="50" as="geometry" />
        </mxCell>
        <mxCell id="hw_Zu4aNKHXRsitxXcyl-143" style="edgeStyle=orthogonalEdgeStyle;rounded=0;orthogonalLoop=1;jettySize=auto;html=1;exitX=0.5;exitY=1;exitDx=0;exitDy=0;entryX=0.5;entryY=0;entryDx=0;entryDy=0;fontSize=15;fontColor=#000000;" edge="1" parent="1" source="hw_Zu4aNKHXRsitxXcyl-133">
          <mxGeometry relative="1" as="geometry">
            <mxPoint x="-510.25" y="382" as="targetPoint" />
            <Array as="points">
              <mxPoint x="-432.75" y="352" />
              <mxPoint x="-509.75" y="352" />
            </Array>
          </mxGeometry>
        </mxCell>
        <mxCell id="hw_Zu4aNKHXRsitxXcyl-180" style="edgeStyle=orthogonalEdgeStyle;rounded=0;orthogonalLoop=1;jettySize=auto;html=1;exitX=0.5;exitY=1;exitDx=0;exitDy=0;entryX=0.5;entryY=0;entryDx=0;entryDy=0;fontSize=15;fontColor=#000000;" edge="1" parent="1" source="hw_Zu4aNKHXRsitxXcyl-133" target="hw_Zu4aNKHXRsitxXcyl-175">
          <mxGeometry relative="1" as="geometry">
            <Array as="points">
              <mxPoint x="-432.75" y="352" />
              <mxPoint x="-337.75" y="352" />
            </Array>
          </mxGeometry>
        </mxCell>
        <mxCell id="hw_Zu4aNKHXRsitxXcyl-133" value="confirm_teaching_pointing" style="ellipse;whiteSpace=wrap;html=1;fontSize=15;dashed=1;" vertex="1" parent="1">
          <mxGeometry x="-532.75" y="292" width="200" height="50" as="geometry" />
        </mxCell>
        <mxCell id="hw_Zu4aNKHXRsitxXcyl-135" value="&lt;font style=&quot;font-size: 15px&quot;&gt;pre_check:&lt;br&gt;state = confirm_teaching_pointing&lt;br&gt;&lt;/font&gt;" style="text;html=1;align=left;verticalAlign=middle;resizable=0;points=[];autosize=1;strokeColor=none;fillColor=none;" vertex="1" parent="1">
          <mxGeometry x="-678" y="342" width="240" height="30" as="geometry" />
        </mxCell>
        <mxCell id="hw_Zu4aNKHXRsitxXcyl-136" value="&lt;font style=&quot;font-size: 15px&quot;&gt;pre_check:&lt;br&gt;state = teach_mode&lt;br&gt;&lt;/font&gt;" style="text;html=1;align=left;verticalAlign=middle;resizable=0;points=[];autosize=1;strokeColor=none;fillColor=none;" vertex="1" parent="1">
          <mxGeometry x="-327.75" y="342" width="150" height="30" as="geometry" />
        </mxCell>
        <mxCell id="hw_Zu4aNKHXRsitxXcyl-153" style="edgeStyle=orthogonalEdgeStyle;rounded=0;orthogonalLoop=1;jettySize=auto;html=1;exitX=0.5;exitY=1;exitDx=0;exitDy=0;entryX=0.5;entryY=0;entryDx=0;entryDy=0;fontSize=15;fontColor=#000000;" edge="1" parent="1" target="hw_Zu4aNKHXRsitxXcyl-139">
          <mxGeometry relative="1" as="geometry">
            <mxPoint x="-510.25" y="432" as="sourcePoint" />
          </mxGeometry>
        </mxCell>
        <mxCell id="hw_Zu4aNKHXRsitxXcyl-146" style="edgeStyle=orthogonalEdgeStyle;rounded=0;orthogonalLoop=1;jettySize=auto;html=1;exitX=0.5;exitY=1;exitDx=0;exitDy=0;entryX=0.5;entryY=0;entryDx=0;entryDy=0;fontSize=15;fontColor=#000000;" edge="1" parent="1" source="hw_Zu4aNKHXRsitxXcyl-139">
          <mxGeometry relative="1" as="geometry">
            <mxPoint x="-572.75" y="562" as="targetPoint" />
          </mxGeometry>
        </mxCell>
        <mxCell id="hw_Zu4aNKHXRsitxXcyl-147" style="edgeStyle=orthogonalEdgeStyle;rounded=0;orthogonalLoop=1;jettySize=auto;html=1;exitX=0.5;exitY=1;exitDx=0;exitDy=0;entryX=0.5;entryY=0;entryDx=0;entryDy=0;fontSize=15;fontColor=#000000;" edge="1" parent="1" source="hw_Zu4aNKHXRsitxXcyl-139">
          <mxGeometry relative="1" as="geometry">
            <mxPoint x="-457.75" y="562" as="targetPoint" />
          </mxGeometry>
        </mxCell>
        <mxCell id="hw_Zu4aNKHXRsitxXcyl-139" value="&lt;span style=&quot;font-size: 12px&quot;&gt;confirm&lt;/span&gt;" style="ellipse;whiteSpace=wrap;html=1;fontSize=15;dashed=1;" vertex="1" parent="1">
          <mxGeometry x="-547.75" y="472" width="75" height="50" as="geometry" />
        </mxCell>
        <mxCell id="hw_Zu4aNKHXRsitxXcyl-148" value="&lt;font style=&quot;font-size: 15px&quot;&gt;pre_check:&lt;br&gt;referential game done&amp;nbsp;&lt;br&gt;&lt;/font&gt;" style="text;html=1;align=left;verticalAlign=middle;resizable=0;points=[];autosize=1;strokeColor=none;fillColor=none;" vertex="1" parent="1">
          <mxGeometry x="-660.25" y="502" width="170" height="30" as="geometry" />
        </mxCell>
        <mxCell id="hw_Zu4aNKHXRsitxXcyl-149" value="&lt;font style=&quot;font-size: 15px&quot;&gt;pre_check:&lt;br&gt;intent = confirm&amp;nbsp;&lt;br&gt;&lt;/font&gt;" style="text;html=1;align=left;verticalAlign=middle;resizable=0;points=[];autosize=1;strokeColor=none;fillColor=none;" vertex="1" parent="1">
          <mxGeometry x="-667.75" y="437" width="120" height="30" as="geometry" />
        </mxCell>
        <mxCell id="hw_Zu4aNKHXRsitxXcyl-152" value="&lt;font style=&quot;font-size: 15px&quot;&gt;pre_check:&lt;br&gt;referential game continue&lt;br&gt;&lt;/font&gt;" style="text;html=1;align=left;verticalAlign=middle;resizable=0;points=[];autosize=1;strokeColor=none;fillColor=none;" vertex="1" parent="1">
          <mxGeometry x="-472.75" y="502" width="190" height="30" as="geometry" />
        </mxCell>
        <mxCell id="hw_Zu4aNKHXRsitxXcyl-154" value="answer_refrent" style="triangle;whiteSpace=wrap;html=1;direction=north;" vertex="1" parent="1">
          <mxGeometry x="-579" y="382" width="137.5" height="50" as="geometry" />
        </mxCell>
        <mxCell id="hw_Zu4aNKHXRsitxXcyl-155" value="&lt;span style=&quot;font-size: 12px&quot;&gt;utter_teach&lt;/span&gt;" style="rounded=0;whiteSpace=wrap;html=1;fontSize=14;" vertex="1" parent="1">
          <mxGeometry x="-622.75" y="562" width="100" height="50" as="geometry" />
        </mxCell>
        <mxCell id="hw_Zu4aNKHXRsitxXcyl-156" value="&lt;span style=&quot;font-size: 12px&quot;&gt;ask_refrent&lt;/span&gt;" style="rounded=0;whiteSpace=wrap;html=1;fontSize=14;" vertex="1" parent="1">
          <mxGeometry x="-502.75" y="562" width="100" height="50" as="geometry" />
        </mxCell>
        <mxCell id="hw_Zu4aNKHXRsitxXcyl-157" value="&lt;font style=&quot;font-size: 15px&quot;&gt;pre_check:&lt;br&gt;cur_state = confirm_asking_pointing&amp;nbsp; &amp;amp;&amp;nbsp;(intent = deny || intent = confirm)&amp;nbsp;&lt;br&gt;&lt;/font&gt;" style="text;html=1;align=left;verticalAlign=middle;resizable=0;points=[];autosize=1;strokeColor=none;fillColor=none;" vertex="1" parent="1">
          <mxGeometry x="-1755" y="704.5" width="510" height="30" as="geometry" />
        </mxCell>
        <mxCell id="hw_Zu4aNKHXRsitxXcyl-158" style="edgeStyle=orthogonalEdgeStyle;rounded=0;orthogonalLoop=1;jettySize=auto;html=1;exitX=0.5;exitY=1;exitDx=0;exitDy=0;entryX=0.5;entryY=0;entryDx=0;entryDy=0;fontSize=15;fontColor=#000000;" edge="1" source="hw_Zu4aNKHXRsitxXcyl-160" parent="1">
          <mxGeometry relative="1" as="geometry">
            <mxPoint x="-1685" y="837" as="targetPoint" />
            <Array as="points">
              <mxPoint x="-1607.5" y="807" />
              <mxPoint x="-1684.5" y="807" />
            </Array>
          </mxGeometry>
        </mxCell>
        <mxCell id="hw_Zu4aNKHXRsitxXcyl-178" style="edgeStyle=orthogonalEdgeStyle;rounded=0;orthogonalLoop=1;jettySize=auto;html=1;exitX=0.5;exitY=1;exitDx=0;exitDy=0;entryX=0.5;entryY=0;entryDx=0;entryDy=0;fontSize=15;fontColor=#000000;" edge="1" parent="1" source="hw_Zu4aNKHXRsitxXcyl-160" target="hw_Zu4aNKHXRsitxXcyl-176">
          <mxGeometry relative="1" as="geometry">
            <Array as="points">
              <mxPoint x="-1607.5" y="807" />
              <mxPoint x="-1542.5" y="807" />
            </Array>
          </mxGeometry>
        </mxCell>
        <mxCell id="hw_Zu4aNKHXRsitxXcyl-160" value="confirm_ask_pointing" style="ellipse;whiteSpace=wrap;html=1;fontSize=15;dashed=1;" vertex="1" parent="1">
          <mxGeometry x="-1707.5" y="747" width="200" height="50" as="geometry" />
        </mxCell>
        <mxCell id="hw_Zu4aNKHXRsitxXcyl-161" value="&lt;font style=&quot;font-size: 15px&quot;&gt;pre_check:&lt;br&gt;state =&amp;nbsp;&lt;span style=&quot;text-align: center&quot;&gt;confirm_ask_pointing&lt;/span&gt;&lt;br&gt;&lt;/font&gt;" style="text;html=1;align=left;verticalAlign=middle;resizable=0;points=[];autosize=1;strokeColor=none;fillColor=none;" vertex="1" parent="1">
          <mxGeometry x="-1820.75" y="794.5" width="210" height="30" as="geometry" />
        </mxCell>
        <mxCell id="hw_Zu4aNKHXRsitxXcyl-162" value="&lt;font style=&quot;font-size: 15px&quot;&gt;pre_check:&lt;br&gt;state = teach_mode&lt;br&gt;&lt;/font&gt;" style="text;html=1;align=left;verticalAlign=middle;resizable=0;points=[];autosize=1;strokeColor=none;fillColor=none;" vertex="1" parent="1">
          <mxGeometry x="-1519.75" y="803" width="150" height="30" as="geometry" />
        </mxCell>
        <mxCell id="hw_Zu4aNKHXRsitxXcyl-163" style="edgeStyle=orthogonalEdgeStyle;rounded=0;orthogonalLoop=1;jettySize=auto;html=1;exitX=0.5;exitY=1;exitDx=0;exitDy=0;entryX=0.5;entryY=0;entryDx=0;entryDy=0;fontSize=15;fontColor=#000000;" edge="1" target="hw_Zu4aNKHXRsitxXcyl-167" parent="1">
          <mxGeometry relative="1" as="geometry">
            <mxPoint x="-1685" y="887" as="sourcePoint" />
          </mxGeometry>
        </mxCell>
        <mxCell id="hw_Zu4aNKHXRsitxXcyl-165" style="edgeStyle=orthogonalEdgeStyle;rounded=0;orthogonalLoop=1;jettySize=auto;html=1;exitX=0.5;exitY=1;exitDx=0;exitDy=0;entryX=0.5;entryY=0;entryDx=0;entryDy=0;fontSize=15;fontColor=#000000;" edge="1" source="hw_Zu4aNKHXRsitxXcyl-167" parent="1">
          <mxGeometry relative="1" as="geometry">
            <mxPoint x="-1747.5" y="1017" as="targetPoint" />
          </mxGeometry>
        </mxCell>
        <mxCell id="hw_Zu4aNKHXRsitxXcyl-166" style="edgeStyle=orthogonalEdgeStyle;rounded=0;orthogonalLoop=1;jettySize=auto;html=1;exitX=0.5;exitY=1;exitDx=0;exitDy=0;entryX=0.5;entryY=0;entryDx=0;entryDy=0;fontSize=15;fontColor=#000000;" edge="1" source="hw_Zu4aNKHXRsitxXcyl-167" parent="1">
          <mxGeometry relative="1" as="geometry">
            <mxPoint x="-1632.5" y="1017" as="targetPoint" />
          </mxGeometry>
        </mxCell>
        <mxCell id="hw_Zu4aNKHXRsitxXcyl-167" value="&lt;span style=&quot;font-size: 12px&quot;&gt;confirm&lt;/span&gt;" style="ellipse;whiteSpace=wrap;html=1;fontSize=15;dashed=1;" vertex="1" parent="1">
          <mxGeometry x="-1722.5" y="927" width="75" height="50" as="geometry" />
        </mxCell>
        <mxCell id="hw_Zu4aNKHXRsitxXcyl-168" value="&lt;font style=&quot;font-size: 15px&quot;&gt;pre_check:&lt;br&gt;referential game done&amp;nbsp;&lt;br&gt;&lt;/font&gt;" style="text;html=1;align=left;verticalAlign=middle;resizable=0;points=[];autosize=1;strokeColor=none;fillColor=none;" vertex="1" parent="1">
          <mxGeometry x="-1835" y="957" width="170" height="30" as="geometry" />
        </mxCell>
        <mxCell id="hw_Zu4aNKHXRsitxXcyl-169" value="&lt;font style=&quot;font-size: 15px&quot;&gt;pre_check:&lt;br&gt;intent = confirm ||&lt;br&gt;intent = deny&amp;nbsp;&lt;br&gt;&lt;/font&gt;" style="text;html=1;align=left;verticalAlign=middle;resizable=0;points=[];autosize=1;strokeColor=none;fillColor=none;" vertex="1" parent="1">
          <mxGeometry x="-1835" y="887" width="130" height="50" as="geometry" />
        </mxCell>
        <mxCell id="hw_Zu4aNKHXRsitxXcyl-170" value="&lt;font style=&quot;font-size: 15px&quot;&gt;pre_check:&lt;br&gt;referential game continue&lt;br&gt;&lt;/font&gt;" style="text;html=1;align=left;verticalAlign=middle;resizable=0;points=[];autosize=1;strokeColor=none;fillColor=none;" vertex="1" parent="1">
          <mxGeometry x="-1647.5" y="957" width="190" height="30" as="geometry" />
        </mxCell>
        <mxCell id="hw_Zu4aNKHXRsitxXcyl-171" value="answer_refrent" style="triangle;whiteSpace=wrap;html=1;direction=north;" vertex="1" parent="1">
          <mxGeometry x="-1753.75" y="837" width="137.5" height="50" as="geometry" />
        </mxCell>
        <mxCell id="hw_Zu4aNKHXRsitxXcyl-172" value="&lt;span style=&quot;font-size: 12px&quot;&gt;answer_question&lt;/span&gt;" style="rounded=0;whiteSpace=wrap;html=1;fontSize=14;" vertex="1" parent="1">
          <mxGeometry x="-1797.5" y="1017" width="100" height="50" as="geometry" />
        </mxCell>
        <mxCell id="hw_Zu4aNKHXRsitxXcyl-173" value="&lt;span style=&quot;font-size: 12px&quot;&gt;ask_refrent&lt;/span&gt;" style="rounded=0;whiteSpace=wrap;html=1;fontSize=14;" vertex="1" parent="1">
          <mxGeometry x="-1677.5" y="1017" width="100" height="50" as="geometry" />
        </mxCell>
        <mxCell id="hw_Zu4aNKHXRsitxXcyl-175" value="&lt;span style=&quot;font-size: 12px&quot;&gt;refrent&lt;/span&gt;" style="rounded=0;whiteSpace=wrap;html=1;fontSize=14;" vertex="1" parent="1">
          <mxGeometry x="-387.75" y="382" width="100" height="50" as="geometry" />
        </mxCell>
        <mxCell id="hw_Zu4aNKHXRsitxXcyl-176" value="&lt;span style=&quot;font-size: 12px&quot;&gt;refrent&lt;/span&gt;" style="rounded=0;whiteSpace=wrap;html=1;fontSize=14;" vertex="1" parent="1">
          <mxGeometry x="-1592.5" y="837" width="100" height="50" as="geometry" />
        </mxCell>
        <mxCell id="hw_Zu4aNKHXRsitxXcyl-181" value="&lt;font style=&quot;font-size: 15px&quot;&gt;pre_check:&lt;br&gt;state = teach_mode &amp;amp; (intent = teach_is || intent = ask)&amp;nbsp;&amp;amp; len(obj) = 1 ||&amp;nbsp;&lt;br&gt;state = ask &amp;amp; intent = deny ||&lt;br&gt;state = confirm_asking_pointing&amp;nbsp; &amp;amp;&amp;nbsp;(intent = deny || intent = confirm)&amp;nbsp;&lt;br&gt;&lt;/font&gt;" style="text;html=1;align=left;verticalAlign=middle;resizable=0;points=[];autosize=1;strokeColor=none;fillColor=none;" vertex="1" parent="1">
          <mxGeometry x="-983.75" y="771" width="492" height="62" as="geometry" />
        </mxCell>
        <mxCell id="hw_Zu4aNKHXRsitxXcyl-182" style="edgeStyle=orthogonalEdgeStyle;rounded=0;orthogonalLoop=1;jettySize=auto;html=1;exitX=0.5;exitY=1;exitDx=0;exitDy=0;entryX=0.5;entryY=0;entryDx=0;entryDy=0;fontSize=15;fontColor=#000000;" edge="1" parent="1">
          <mxGeometry relative="1" as="geometry">
            <mxPoint x="185" y="1410" as="sourcePoint" />
            <mxPoint x="107.5" y="1450" as="targetPoint" />
            <Array as="points">
              <mxPoint x="185" y="1420" />
              <mxPoint x="108" y="1420" />
            </Array>
          </mxGeometry>
        </mxCell>
        <mxCell id="hw_Zu4aNKHXRsitxXcyl-183" style="edgeStyle=orthogonalEdgeStyle;rounded=0;orthogonalLoop=1;jettySize=auto;html=1;exitX=0.5;exitY=1;exitDx=0;exitDy=0;entryX=0.5;entryY=0;entryDx=0;entryDy=0;fontSize=15;fontColor=#000000;" edge="1" target="hw_Zu4aNKHXRsitxXcyl-197" parent="1">
          <mxGeometry relative="1" as="geometry">
            <mxPoint x="185" y="1410" as="sourcePoint" />
            <Array as="points">
              <mxPoint x="185" y="1420" />
              <mxPoint x="250" y="1420" />
            </Array>
          </mxGeometry>
        </mxCell>
        <mxCell id="hw_Zu4aNKHXRsitxXcyl-201" style="edgeStyle=orthogonalEdgeStyle;rounded=0;orthogonalLoop=1;jettySize=auto;html=1;exitX=0.5;exitY=1;exitDx=0;exitDy=0;entryX=0.5;entryY=0;entryDx=0;entryDy=0;fontSize=15;fontColor=#000000;" edge="1" parent="1" source="hw_Zu4aNKHXRsitxXcyl-184" target="hw_Zu4aNKHXRsitxXcyl-199">
          <mxGeometry relative="1" as="geometry" />
        </mxCell>
        <mxCell id="hw_Zu4aNKHXRsitxXcyl-202" style="edgeStyle=orthogonalEdgeStyle;rounded=0;orthogonalLoop=1;jettySize=auto;html=1;exitX=0.5;exitY=1;exitDx=0;exitDy=0;fontSize=15;fontColor=#000000;" edge="1" parent="1" source="hw_Zu4aNKHXRsitxXcyl-184" target="hw_Zu4aNKHXRsitxXcyl-200">
          <mxGeometry relative="1" as="geometry" />
        </mxCell>
        <mxCell id="hw_Zu4aNKHXRsitxXcyl-203" style="edgeStyle=orthogonalEdgeStyle;rounded=0;orthogonalLoop=1;jettySize=auto;html=1;exitX=0.5;exitY=1;exitDx=0;exitDy=0;entryX=0.5;entryY=0;entryDx=0;entryDy=0;fontSize=15;fontColor=#000000;" edge="1" parent="1" source="hw_Zu4aNKHXRsitxXcyl-184" target="hw_Zu4aNKHXRsitxXcyl-198">
          <mxGeometry relative="1" as="geometry" />
        </mxCell>
        <mxCell id="hw_Zu4aNKHXRsitxXcyl-184" value="feedback" style="ellipse;whiteSpace=wrap;html=1;fontSize=15;dashed=1;" vertex="1" parent="1">
          <mxGeometry x="-871.25" y="867" width="200" height="50" as="geometry" />
        </mxCell>
        <mxCell id="hw_Zu4aNKHXRsitxXcyl-185" value="&lt;font style=&quot;font-size: 15px&quot;&gt;pre_check:&lt;br&gt;state =&amp;nbsp;&lt;span style=&quot;text-align: center&quot;&gt;confirm_ask_pointing&lt;/span&gt;&lt;br&gt;&lt;/font&gt;" style="text;html=1;align=left;verticalAlign=middle;resizable=0;points=[];autosize=1;strokeColor=none;fillColor=none;" vertex="1" parent="1">
          <mxGeometry x="-25" y="1410" width="210" height="30" as="geometry" />
        </mxCell>
        <mxCell id="hw_Zu4aNKHXRsitxXcyl-186" value="&lt;font style=&quot;font-size: 15px&quot;&gt;pre_check:&lt;br&gt;state = teach_mode&lt;br&gt;&lt;/font&gt;" style="text;html=1;align=left;verticalAlign=middle;resizable=0;points=[];autosize=1;strokeColor=none;fillColor=none;" vertex="1" parent="1">
          <mxGeometry x="245" y="1370" width="150" height="30" as="geometry" />
        </mxCell>
        <mxCell id="hw_Zu4aNKHXRsitxXcyl-187" style="edgeStyle=orthogonalEdgeStyle;rounded=0;orthogonalLoop=1;jettySize=auto;html=1;exitX=0.5;exitY=1;exitDx=0;exitDy=0;entryX=0.5;entryY=0;entryDx=0;entryDy=0;fontSize=15;fontColor=#000000;" edge="1" target="hw_Zu4aNKHXRsitxXcyl-190" parent="1">
          <mxGeometry relative="1" as="geometry">
            <mxPoint x="107.5" y="1500" as="sourcePoint" />
          </mxGeometry>
        </mxCell>
        <mxCell id="hw_Zu4aNKHXRsitxXcyl-188" style="edgeStyle=orthogonalEdgeStyle;rounded=0;orthogonalLoop=1;jettySize=auto;html=1;exitX=0.5;exitY=1;exitDx=0;exitDy=0;entryX=0.5;entryY=0;entryDx=0;entryDy=0;fontSize=15;fontColor=#000000;" edge="1" source="hw_Zu4aNKHXRsitxXcyl-190" parent="1">
          <mxGeometry relative="1" as="geometry">
            <mxPoint x="45" y="1630" as="targetPoint" />
          </mxGeometry>
        </mxCell>
        <mxCell id="hw_Zu4aNKHXRsitxXcyl-189" style="edgeStyle=orthogonalEdgeStyle;rounded=0;orthogonalLoop=1;jettySize=auto;html=1;exitX=0.5;exitY=1;exitDx=0;exitDy=0;entryX=0.5;entryY=0;entryDx=0;entryDy=0;fontSize=15;fontColor=#000000;" edge="1" source="hw_Zu4aNKHXRsitxXcyl-190" parent="1">
          <mxGeometry relative="1" as="geometry">
            <mxPoint x="160" y="1630" as="targetPoint" />
          </mxGeometry>
        </mxCell>
        <mxCell id="hw_Zu4aNKHXRsitxXcyl-190" value="&lt;span style=&quot;font-size: 12px&quot;&gt;confirm&lt;/span&gt;" style="ellipse;whiteSpace=wrap;html=1;fontSize=15;dashed=1;" vertex="1" parent="1">
          <mxGeometry x="70" y="1540" width="75" height="50" as="geometry" />
        </mxCell>
        <mxCell id="hw_Zu4aNKHXRsitxXcyl-191" value="&lt;font style=&quot;font-size: 15px&quot;&gt;pre_check:&lt;br&gt;referential game done&amp;nbsp;&lt;br&gt;&lt;/font&gt;" style="text;html=1;align=left;verticalAlign=middle;resizable=0;points=[];autosize=1;strokeColor=none;fillColor=none;" vertex="1" parent="1">
          <mxGeometry x="-42.5" y="1570" width="170" height="30" as="geometry" />
        </mxCell>
        <mxCell id="hw_Zu4aNKHXRsitxXcyl-192" value="&lt;font style=&quot;font-size: 15px&quot;&gt;pre_check:&lt;br&gt;intent = confirm ||&lt;br&gt;intent = deny&amp;nbsp;&lt;br&gt;&lt;/font&gt;" style="text;html=1;align=left;verticalAlign=middle;resizable=0;points=[];autosize=1;strokeColor=none;fillColor=none;" vertex="1" parent="1">
          <mxGeometry x="-42.5" y="1500" width="130" height="50" as="geometry" />
        </mxCell>
        <mxCell id="hw_Zu4aNKHXRsitxXcyl-193" value="&lt;font style=&quot;font-size: 15px&quot;&gt;pre_check:&lt;br&gt;referential game continue&lt;br&gt;&lt;/font&gt;" style="text;html=1;align=left;verticalAlign=middle;resizable=0;points=[];autosize=1;strokeColor=none;fillColor=none;" vertex="1" parent="1">
          <mxGeometry x="145" y="1570" width="190" height="30" as="geometry" />
        </mxCell>
        <mxCell id="hw_Zu4aNKHXRsitxXcyl-194" value="answer_refrent" style="triangle;whiteSpace=wrap;html=1;direction=north;" vertex="1" parent="1">
          <mxGeometry x="38.75" y="1450" width="137.5" height="50" as="geometry" />
        </mxCell>
        <mxCell id="hw_Zu4aNKHXRsitxXcyl-195" value="&lt;span style=&quot;font-size: 12px&quot;&gt;utter_answer&lt;/span&gt;" style="rounded=0;whiteSpace=wrap;html=1;fontSize=14;" vertex="1" parent="1">
          <mxGeometry x="-5" y="1630" width="100" height="50" as="geometry" />
        </mxCell>
        <mxCell id="hw_Zu4aNKHXRsitxXcyl-196" value="&lt;span style=&quot;font-size: 12px&quot;&gt;ask_refrent&lt;/span&gt;" style="rounded=0;whiteSpace=wrap;html=1;fontSize=14;" vertex="1" parent="1">
          <mxGeometry x="115" y="1630" width="100" height="50" as="geometry" />
        </mxCell>
        <mxCell id="hw_Zu4aNKHXRsitxXcyl-197" value="&lt;span style=&quot;font-size: 12px&quot;&gt;refrent&lt;/span&gt;" style="rounded=0;whiteSpace=wrap;html=1;fontSize=14;" vertex="1" parent="1">
          <mxGeometry x="200" y="1450" width="100" height="50" as="geometry" />
        </mxCell>
        <mxCell id="hw_Zu4aNKHXRsitxXcyl-198" value="&lt;span style=&quot;font-size: 12px&quot;&gt;utter_deny&lt;/span&gt;" style="rounded=0;whiteSpace=wrap;html=1;fontSize=14;" vertex="1" parent="1">
          <mxGeometry x="-1013.75" y="1017" width="100" height="50" as="geometry" />
        </mxCell>
        <mxCell id="hw_Zu4aNKHXRsitxXcyl-199" value="&lt;span style=&quot;font-size: 12px&quot;&gt;utter_teach&lt;/span&gt;" style="rounded=0;whiteSpace=wrap;html=1;fontSize=14;" vertex="1" parent="1">
          <mxGeometry x="-821.25" y="1017" width="100" height="50" as="geometry" />
        </mxCell>
        <mxCell id="hw_Zu4aNKHXRsitxXcyl-200" value="&lt;span style=&quot;font-size: 12px&quot;&gt;utter_answer&lt;/span&gt;" style="rounded=0;whiteSpace=wrap;html=1;fontSize=14;" vertex="1" parent="1">
          <mxGeometry x="-618.75" y="1017" width="100" height="50" as="geometry" />
        </mxCell>
        <mxCell id="hw_Zu4aNKHXRsitxXcyl-204" value="&lt;font style=&quot;font-size: 15px&quot;&gt;pre_check:&lt;br&gt;intent = deny&lt;br&gt;&lt;/font&gt;" style="text;html=1;align=left;verticalAlign=middle;resizable=0;points=[];autosize=1;strokeColor=none;fillColor=none;" vertex="1" parent="1">
          <mxGeometry x="-1073.75" y="967" width="100" height="30" as="geometry" />
        </mxCell>
        <mxCell id="hw_Zu4aNKHXRsitxXcyl-205" value="&lt;font style=&quot;font-size: 15px&quot;&gt;pre_check:&lt;br&gt;intent =&amp;nbsp;teach_is&lt;/font&gt;" style="text;html=1;align=left;verticalAlign=middle;resizable=0;points=[];autosize=1;strokeColor=none;fillColor=none;" vertex="1" parent="1">
          <mxGeometry x="-885.75" y="974.5" width="130" height="30" as="geometry" />
        </mxCell>
        <mxCell id="hw_Zu4aNKHXRsitxXcyl-206" value="&lt;font style=&quot;font-size: 15px&quot;&gt;pre_check:&lt;br&gt;intent =&amp;nbsp;ask&lt;/font&gt;" style="text;html=1;align=left;verticalAlign=middle;resizable=0;points=[];autosize=1;strokeColor=none;fillColor=none;" vertex="1" parent="1">
          <mxGeometry x="-558.75" y="967" width="90" height="30" as="geometry" />
        </mxCell>
        <mxCell id="hw_Zu4aNKHXRsitxXcyl-208" value="&lt;h2&gt;utility=8&lt;/h2&gt;" style="text;html=1;strokeColor=none;fillColor=none;align=center;verticalAlign=middle;whiteSpace=wrap;rounded=0;dashed=1;fontSize=15;fontColor=#000000;" vertex="1" parent="1">
          <mxGeometry x="-663" y="212" width="84" height="60" as="geometry" />
        </mxCell>
        <mxCell id="hw_Zu4aNKHXRsitxXcyl-210" value="&lt;h2&gt;utility=3&lt;/h2&gt;" style="text;html=1;strokeColor=none;fillColor=none;align=center;verticalAlign=middle;whiteSpace=wrap;rounded=0;dashed=1;fontSize=15;fontColor=#000000;" vertex="1" parent="1">
          <mxGeometry x="-1895" y="222" width="84" height="60" as="geometry" />
        </mxCell>
        <mxCell id="hw_Zu4aNKHXRsitxXcyl-212" value="&lt;h2&gt;utility=5&lt;/h2&gt;" style="text;html=1;strokeColor=none;fillColor=none;align=center;verticalAlign=middle;whiteSpace=wrap;rounded=0;dashed=1;fontSize=15;fontColor=#000000;" vertex="1" parent="1">
          <mxGeometry x="-1569" y="222" width="84" height="60" as="geometry" />
        </mxCell>
        <mxCell id="hw_Zu4aNKHXRsitxXcyl-214" value="&lt;h2&gt;utility=6&lt;/h2&gt;" style="text;html=1;strokeColor=none;fillColor=none;align=center;verticalAlign=middle;whiteSpace=wrap;rounded=0;dashed=1;fontSize=15;fontColor=#000000;" vertex="1" parent="1">
          <mxGeometry x="-1059" y="222" width="84" height="60" as="geometry" />
        </mxCell>
        <mxCell id="hw_Zu4aNKHXRsitxXcyl-216" value="&lt;h2&gt;utility=9&lt;/h2&gt;" style="text;html=1;strokeColor=none;fillColor=none;align=center;verticalAlign=middle;whiteSpace=wrap;rounded=0;dashed=1;fontSize=15;fontColor=#000000;" vertex="1" parent="1">
          <mxGeometry x="-1895" y="704.5" width="84" height="60" as="geometry" />
        </mxCell>
        <mxCell id="hw_Zu4aNKHXRsitxXcyl-218" value="&lt;h2&gt;utility=12&lt;/h2&gt;" style="text;html=1;strokeColor=none;fillColor=none;align=center;verticalAlign=middle;whiteSpace=wrap;rounded=0;dashed=1;fontSize=15;fontColor=#000000;" vertex="1" parent="1">
          <mxGeometry x="-1103.75" y="712" width="84" height="60" as="geometry" />
        </mxCell>
      </root>
    </mxGraphModel>
  </diagram>
</mxfile>
